<?xml version="1.0" encoding="utf-8"?>
<!-- Generator: Adobe Illustrator 22.0.1, SVG Export Plug-In . SVG Version: 6.00 Build 0)  -->
<svg version="1.1" id="Layer_1" xmlns="http://www.w3.org/2000/svg" xmlns:xlink="http://www.w3.org/1999/xlink" x="0px" y="0px"
	 viewBox="0 0 18 20" style="enable-background:new 0 0 18 20;" xml:space="preserve">
<style type="text/css">
	.st1{fill:#cfcfcf;}
	.st0{fill:none;}
</style>
<path class="st0" d="M-3-1h24v24H-3V-1z"/>
<path class="st1" d="M16,2h-1V0h-2v2H5V0H3v2H2C0.9,2,0,2.9,0,4v14c0,1.1,0.9,2,2,2h14c1.1,0,2-0.9,2-2V4C18,2.9,17.1,2,16,2z M16,18H2V8h14V18z
	 M2,6V4h14v2H2z M7.6,16.5l5.9-5.9l-1.1-1.1l-4.9,4.9l-2.1-2.1l-1.1,1.1L7.6,16.5z"/>
</svg>
