<?xml version="1.0" encoding="utf-8"?>
<!-- Generator: Adobe Illustrator 22.0.1, SVG Export Plug-In . SVG Version: 6.00 Build 0)  -->
<svg version="1.1" id="Layer_1" xmlns="http://www.w3.org/2000/svg" xmlns:xlink="http://www.w3.org/1999/xlink" x="0px" y="0px"
	 viewBox="0 0 73.1 60.9" style="enable-background:new 0 0 73.1 60.9;" xml:space="preserve">
<style type="text/css">
	.st0{fill:#1F3B73;}
</style>
<g>
	<path class="st0" d="M71.5,0c-1.1-0.2-2.1,0.5-2.4,1.5c0,0.1-2.4,10.8-9.7,20c-6.1,7.6-13.8,11.9-22.8,12.9c-0.3,0-0.5-0.1-0.8-0.1
		c-0.3,0-0.5-0.1-0.8-0.1c-0.3,0-0.6-0.1-0.9-0.2c-0.3,0-0.5-0.1-0.8-0.1c-0.3-0.1-0.6-0.1-0.8-0.2c-0.3-0.1-0.5-0.1-0.8-0.2
		c-0.3-0.1-0.6-0.2-0.8-0.2c-0.3-0.1-0.5-0.1-0.8-0.2c-0.3-0.1-0.6-0.2-0.8-0.3c-0.2-0.1-0.5-0.2-0.7-0.3c-0.3-0.1-0.5-0.2-0.8-0.3
		c-0.2-0.1-0.5-0.2-0.7-0.3c-0.3-0.1-0.5-0.2-0.8-0.4c-0.2-0.1-0.5-0.2-0.7-0.3c-0.3-0.1-0.5-0.3-0.8-0.4c-0.2-0.1-0.5-0.2-0.7-0.4
		c-0.2-0.1-0.5-0.3-0.7-0.4c-0.2-0.1-0.5-0.3-0.7-0.4c-0.2-0.2-0.5-0.3-0.7-0.5c-0.2-0.1-0.4-0.3-0.7-0.4c-0.2-0.2-0.5-0.3-0.7-0.5
		c-0.2-0.2-0.4-0.3-0.6-0.5c-0.2-0.2-0.5-0.4-0.7-0.6c-0.2-0.2-0.4-0.3-0.6-0.5c-0.2-0.2-0.4-0.4-0.6-0.6c-0.2-0.2-0.4-0.4-0.6-0.6
		c-0.2-0.2-0.4-0.4-0.6-0.6c-0.2-0.2-0.4-0.4-0.6-0.6c-0.2-0.3-0.5-0.5-0.7-0.8c-0.2-0.2-0.3-0.3-0.5-0.5c-0.4-0.5-0.8-0.9-1.2-1.4
		C6.3,12.5,4,1.7,4,1.6C3.7,0.5,2.7-0.2,1.6,0C0.5,0.3-0.2,1.3,0,2.4c0.1,0.5,2.6,11.8,10.5,21.7c0.1,0.1,0.2,0.2,0.2,0.3
		c0.5,2.5,2.5,14.8,3.1,33.3c0,1.1,0.9,1.9,2,1.9c0,0,0,0,0.1,0c1.1,0,2-1,1.9-2.1c-0.4-12.6-1.4-22.3-2.2-28.1
		c5.9,5.2,12.8,8.2,20.7,9c0.1,0,0.1,0,0.2,0c0,0,0,0,0,0l0.1,0l0.1,0c7.9-0.8,14.8-3.8,20.7-9c-0.8,5.8-1.9,15.5-2.2,28.1
		c0,1.1,0.8,2,1.9,2.1c0,0,0,0,0.1,0c1.1,0,2-0.9,2-1.9c0.5-18.5,2.6-30.8,3.1-33.3c0.1-0.1,0.2-0.2,0.2-0.3
		c8-9.9,10.4-21.2,10.5-21.7C73.3,1.3,72.6,0.3,71.5,0z"/>
	<path class="st0" d="M41.8,41.7c-2.3,0-4.1,0.8-5.3,1.6c0,0,0,0,0,0c0,0,0,0,0,0c-0.2-0.1-0.4-0.3-0.7-0.4c-0.1,0-0.1-0.1-0.2-0.1
		c-0.3-0.1-0.5-0.3-0.8-0.4c-0.1,0-0.1,0-0.2-0.1c-0.3-0.1-0.5-0.2-0.8-0.3c-0.1,0-0.1,0-0.2,0c-0.3-0.1-0.7-0.2-1-0.2
		c-0.1,0-0.2,0-0.2,0c-0.4,0-0.8-0.1-1.2-0.1c-4.3,0-7.2,2.9-7.2,6.9C23.7,57,35.4,60.7,35.9,60.9l0.4,0.1h0.2c0,0,0,0,0,0
		c0,0,0,0,0,0h0.4l0.3-0.1c0.5-0.2,12.3-3.8,11.9-12.1C49.1,44.6,46.1,41.7,41.8,41.7z M36.5,56.8c-0.1,0-0.2-0.1-0.3-0.1
		c0,0-0.1,0-0.1,0c-0.2-0.1-0.4-0.1-0.6-0.2c0,0,0,0,0,0c-0.2-0.1-0.4-0.2-0.6-0.3c-0.1,0-0.2-0.1-0.2-0.1c-0.2-0.1-0.3-0.1-0.5-0.2
		c-0.1,0-0.2-0.1-0.3-0.2c-0.2-0.1-0.3-0.2-0.5-0.2c-0.1-0.1-0.2-0.1-0.3-0.2c-0.2-0.1-0.3-0.2-0.5-0.3c-0.1-0.1-0.2-0.1-0.3-0.2
		c-0.2-0.1-0.3-0.2-0.5-0.3c-0.1-0.1-0.2-0.1-0.3-0.2c-0.3-0.2-0.5-0.4-0.8-0.6c0,0,0,0-0.1,0c-0.2-0.2-0.4-0.4-0.7-0.6
		c-0.1-0.1-0.1-0.2-0.2-0.2c-0.1-0.2-0.3-0.3-0.4-0.5c-0.1-0.1-0.1-0.2-0.2-0.3c-0.1-0.2-0.2-0.3-0.3-0.5c-0.1-0.1-0.1-0.2-0.2-0.3
		c-0.1-0.2-0.2-0.3-0.2-0.5c0-0.1-0.1-0.2-0.1-0.3c-0.1-0.2-0.1-0.4-0.2-0.6c0-0.1-0.1-0.2-0.1-0.3c0-0.3-0.1-0.6-0.1-0.9
		c0-2.7,2.3-3,3.2-3c2.5,0,3.6,1.4,3.6,1.4l0.6,0.8l1.1,0.9l1.1-0.9l0.6-0.8c0,0,1.2-1.4,3.6-1.4c1,0,3.2,0.3,3.2,3.1
		C45.3,53.3,38.5,56.1,36.5,56.8z"/>
</g>
</svg>
